<?xml version="1.0" encoding="UTF-8" standalone="no"?>
<svg
   xmlns:dc="http://purl.org/dc/elements/1.1/"
   xmlns:cc="http://creativecommons.org/ns#"
   xmlns:rdf="http://www.w3.org/1999/02/22-rdf-syntax-ns#"
   xmlns:svg="http://www.w3.org/2000/svg"
   xmlns="http://www.w3.org/2000/svg"
   xmlns:sodipodi="http://sodipodi.sourceforge.net/DTD/sodipodi-0.dtd"
   xmlns:inkscape="http://www.inkscape.org/namespaces/inkscape"
   width="128"
   height="31.353001"
   viewBox="0 0 128 31.353"
   version="1.1"
   id="svg29"
   sodipodi:docname="logo.svg"
   inkscape:version="1.0.1 (3bc2e813f5, 2020-09-07)">
  <metadata
     id="metadata33">
    <rdf:RDF>
      <cc:Work
         rdf:about="">
        <dc:format>image/svg+xml</dc:format>
        <dc:type
           rdf:resource="http://purl.org/dc/dcmitype/StillImage" />
        <dc:title></dc:title>
      </cc:Work>
    </rdf:RDF>
  </metadata>
  <sodipodi:namedview
     pagecolor="#ffffff"
     bordercolor="#666666"
     borderopacity="1"
     objecttolerance="10"
     gridtolerance="10"
     guidetolerance="10"
     inkscape:pageopacity="0"
     inkscape:pageshadow="2"
     inkscape:window-width="1941"
     inkscape:window-height="747"
     id="namedview31"
     showgrid="false"
     inkscape:zoom="5.370389"
     inkscape:cx="98.410004"
     inkscape:cy="15.6765"
     inkscape:window-x="0"
     inkscape:window-y="0"
     inkscape:window-maximized="0"
     inkscape:current-layer="svg29" />
  <defs
     id="defs12">
    <linearGradient
       id="linear-gradient"
       y1="2213.0669"
       x2="2221.2595"
       y2="2213.2083"
       gradientUnits="userSpaceOnUse"
       gradientTransform="matrix(0.91770835,0,0,1.0896708,-1868.238,-2389.408)"
       x1="2209.4858">
      <stop
         offset="0"
         stop-color="#ff3158"
         id="stop2" />
      <stop
         offset="1"
         stop-color="#ff1249"
         id="stop4" />
    </linearGradient>
    <linearGradient
       id="linear-gradient-2"
       y1="2847.989"
       x2="1728.0228"
       y2="2848.1963"
       gradientUnits="userSpaceOnUse"
       gradientTransform="matrix(1.1815539,0,0,0.84634313,-1867.772,-2388.608)"
       x1="1712.072">
      <stop
         offset="0"
         stop-color="#ff4e70"
         id="stop7" />
      <stop
         offset="1"
         stop-color="#ff3158"
         id="stop9" />
    </linearGradient>
  </defs>
  <g
     id="g919"
     transform="translate(8.3792813)">
    <g
       id="g880"
       transform="translate(-128.99266)">
      <path
         id="add"
         d="m 168.54233,6.05425 -1.05,-0.582 a 0.07103017,0.07103017 0 0 1 -0.0277,-0.09656 l 0.58103,-1.04825 a 0.35314999,0.35314999 0 1 0 -0.61688,-0.341925 l -0.58199,1.05 a 0.07103017,0.07103017 0 0 1 -0.0966,0.02769 l -1.05,-0.582 a 0.35314999,0.35314999 0 0 0 -0.34192,0.616875 l 1.05,0.582 a 0.07103017,0.07103017 0 0 1 0.0277,0.09656 l -0.582,1.05 a 0.35314999,0.35314999 0 1 0 0.61687,0.341925 l 0.582,-1.05 a 0.07103017,0.07103017 0 0 1 0.0975,-0.02944 l 1.05,0.582 a 0.35314999,0.35314999 0 0 0 0.34193,-0.616875 z m 0,0"
         fill="#222222"
         style="stroke-width:1.00042" />
      <path
         id="minus"
         d="m 164.8731,0.1698 -2.26009,1.101132 a 0.39100967,0.39100967 0 0 0 0.34252,0.703018 l 2.26009,-1.101132 A 0.39100967,0.39100967 0 0 0 164.8731,0.1698 Z"
         fill="#222222"
         style="stroke-width:1.00002" />
      <g
         id="Ellipse_359"
         data-name="Ellipse 359"
         transform="translate(159.07,4.725)"
         fill="none"
         stroke="#222222"
         stroke-width="0.8">
        <circle
           cx="1.408"
           cy="1.408"
           r="1.408"
           stroke="none"
           id="circle16" />
        <circle
           cx="1.408"
           cy="1.408"
           r="1.008"
           fill="none"
           id="circle18" />
      </g>
      <path
         id="Path_28989"
         data-name="Path 28989"
         d="m 159.728,18.45 a 5.4,5.4 0 0 1 5.563,0.62 c 3.925,1.087 4.705,0.56 4.705,0.56 0,0 1.923,10.548 -5.248,11.13 -7.171,0.582 -5.02,-12.31 -5.02,-12.31 z"
         fill="url(#linear-gradient)"
         style="fill:url(#linear-gradient)" />
      <path
         id="Path_28990"
         data-name="Path 28990"
         d="m 169.728,19.203 a 3.954,3.954 0 0 0 -5.536,-0.409 4.021,4.021 0 0 1 -4.7,0.409 c 0,0 -4.756,7.383 -4.332,10.574 0.9,2.325 6.238,0.685 9.273,0.927 3.305,0.264 8.276,1.75 9.547,-0.927 -0.252,-3.137 -4.197,-10.507 -4.252,-10.574 z"
         fill="url(#linear-gradient-2)"
         style="fill:url(#linear-gradient-2)" />
      <path
         id="Path_28991"
         data-name="Path 28991"
         d="m 174.479,29.008 -6.56,-14.458 a 2,2 0 0 1 -0.135,-0.661 v -1.332 a 0.6,0.6 0 0 1 0.318,-0.475 1.486,1.486 0 0 0 -0.724,-2.787 h -5.5 a 1.488,1.488 0 0 0 -0.846,2.714 0.691,0.691 0 0 1 0.3,0.505 v 1.539 a 1.838,1.838 0 0 1 -0.145,0.656 l -6.651,14.306 a 1.645,1.645 0 0 0 0.024,1.6 1.646,1.646 0 0 0 1.439,0.7 h 16.96 a 1.564,1.564 0 0 0 1.52,-2.3 z m -0.948,0.656 c 0,0 0.364,0.554 -0.217,0.581 0,0.053 -13.11,0.052 -17.587,0 -0.554,0 -0.29,-0.534 -0.29,-0.534 0,-0.016 3.7,-8.143 3.78,-8.315 l 3,-6.459 a 1.825,1.825 0 0 0 0.124,-0.656 v -2.644 c 0,-0.217 -0.105,-0.393 -0.234,-0.393 h -0.232 a 0.459,0.459 0 0 1 0,-0.917 h 5.5 a 0.459,0.459 0 0 1 0,0.917 h -0.308 a 0.358,0.358 0 0 0 -0.307,0.393 v 2.464 a 2,2 0 0 0 0.124,0.661 l 2.828,6.63 c 0.078,0.174 3.866,8.288 3.819,8.272 z"
         fill="#030104" />
      <g
         id="Group_1040"
         data-name="Group 1040"
         transform="translate(159.773,19.95)">
        <path
           id="Path_28966"
           data-name="Path 28966"
           d="m 120.962,6.575 -3.875,-6.342 a 0.486,0.486 0 0 0 -0.829,0 l -3.875,6.342 a 0.486,0.486 0 0 0 0.742,0.612 5.311,5.311 0 0 1 7.1,0 0.485,0.485 0 0 0 0.742,-0.611 z"
           transform="translate(-112.311)"
           fill="#222222" />
      </g>
    </g>
    <text
       xml:space="preserve"
       style="font-size:40px;line-height:1.25;font-family:roboto;-inkscape-font-specification:roboto"
       x="2.0482688"
       y="29.979206"
       id="text884"><tspan
         sodipodi:role="line"
         id="tspan882"
         x="2.0482688"
         y="29.979206">P</tspan></text>
    <text
       xml:space="preserve"
       style="font-size:40px;line-height:1.25;font-family:roboto;-inkscape-font-specification:roboto"
       x="46.715763"
       y="30.418695"
       id="text884-4"><tspan
         sodipodi:role="line"
         id="tspan882-6"
         x="46.715763"
         y="30.418695">rsa</tspan></text>
  </g>
</svg>
